<svg width="885" height="528" viewBox="0 0 885 528" fill="none" xmlns="http://www.w3.org/2000/svg">
<path d="M746.526 0.51709C755.087 0.51709 762.026 7.45668 762.026 16.0171C762.026 77.1552 768.451 137.897 774.991 199.619L775.024 199.924L775.024 199.926C781.525 261.279 788.129 323.606 788.129 386.67C788.129 395.23 781.189 402.17 772.629 402.17C764.068 402.17 757.129 395.23 757.129 386.67C757.129 325.409 750.704 264.605 744.164 202.885L744.112 202.401C737.618 141.107 731.026 78.8996 731.026 16.0171C731.026 7.45668 737.966 0.51709 746.526 0.51709Z" fill="black"/>
<path fill-rule="evenodd" clip-rule="evenodd" d="M417.788 64.1521C414.591 61.3128 412.578 57.1718 412.578 52.5604C412.578 43.9999 419.517 37.0604 428.078 37.0604C434.806 37.0604 442.039 36.7226 449.874 36.3263C450.514 36.2939 451.159 36.2611 451.807 36.2282C458.96 35.8643 466.56 35.4776 474.152 35.3426C490.553 35.051 508.511 35.8673 524.917 41.3361C543.6 47.5636 562.1 63.7392 575.595 81.3281C589.035 98.8461 600.192 121.265 600.192 142.178C600.192 168.626 593.816 187.704 578.716 201.78C564.992 214.573 545.426 221.574 525.175 228.721C520.538 230.358 516.089 232.429 511.38 234.814C518.027 236.28 524.661 237.974 530.955 239.934C538.401 242.252 545.735 245.051 552.207 248.48C558.539 251.835 564.977 256.278 569.664 262.304C586.356 283.765 590.945 311.646 591.89 337.192C592.501 353.682 591.549 371.517 590.714 387.155C590.284 395.194 589.886 402.652 589.747 409.049C589.151 436.444 578.213 456.427 560.048 469.539C542.809 481.983 520.519 487.186 498.595 489.245C480.445 490.949 461.239 490.599 443.112 489.646C441.422 496.376 435.332 501.359 428.078 501.359C420.117 501.359 413.557 495.356 412.678 487.63C398.523 486.595 386.143 485.698 375.873 485.698C367.313 485.698 360.373 478.758 360.373 470.198C360.373 461.637 367.313 454.698 375.873 454.698C386.427 454.698 399.226 455.565 412.646 456.541C412.931 393.962 414.061 331.436 415.189 269.029L415.191 268.944C416.426 200.589 417.659 132.375 417.788 64.1521ZM448.781 67.4199C449.669 67.376 450.556 67.3315 451.44 67.2867L453.306 67.192C460.551 66.8239 467.65 66.4631 474.703 66.3377C490.176 66.0626 503.838 66.9865 515.114 70.7453C525.614 74.245 539.451 85.146 550.999 100.198C562.602 115.321 569.192 131.107 569.192 142.178C569.192 163.397 564.287 172.85 557.578 179.105C549.492 186.642 536.721 191.772 514.857 199.488C505.682 202.727 496.072 207.769 487.719 212.152C484.809 213.679 482.051 215.126 479.518 216.388C468.54 221.859 459.94 224.997 452.15 224.997C450.011 224.997 448.273 225.005 446.978 225.03C447.887 172.558 448.655 120.008 448.781 67.4199ZM443.637 458.63C461.444 459.591 479.309 459.919 495.697 458.38C515.508 456.52 531.273 452.078 541.904 444.404C551.608 437.398 558.354 426.79 558.754 408.375C558.938 399.952 559.4 391.528 559.867 383.032C560.668 368.462 561.48 353.682 560.912 338.338C560.034 314.627 555.758 294.919 545.194 281.336C544.262 280.137 542.051 278.182 537.693 275.872C533.475 273.637 528.078 271.506 521.74 269.533C509.053 265.583 494.053 262.71 480.328 260.649C468.08 258.809 457.288 257.678 450.515 256.968L450.511 256.967L450.509 256.967L450.498 256.966C449.731 256.885 449.017 256.811 448.357 256.741C447.685 256.669 447.032 256.599 446.42 256.531C446.342 260.836 446.265 265.141 446.187 269.445V269.449L446.186 269.504C445.045 332.635 443.906 395.637 443.637 458.63ZM448.283 225.532C448.255 225.527 448.239 225.525 448.236 225.524C448.235 225.524 448.237 225.525 448.242 225.525L448.283 225.532Z" fill="black"/>
<path fill-rule="evenodd" clip-rule="evenodd" d="M125.549 41.3449C122.767 38.6902 118.999 37.0601 114.85 37.0601C110.248 37.0601 106.115 39.065 103.277 42.2488C101.896 42.2697 100.533 42.2807 99.1885 42.2807C90.6281 42.2807 83.6885 49.2203 83.6885 57.7807C83.6885 66.3411 90.6281 73.2807 99.1885 73.2807L99.3125 73.2806C99.2655 87.2617 99.1805 101.295 99.0952 115.37C98.4989 213.777 97.8905 314.186 110.2 412.664C110.65 416.26 112.182 423.263 113.857 430.918L113.864 430.95C114.108 432.063 114.355 433.19 114.601 434.323C116.682 443.872 119.111 455.225 121.066 466.32C121.457 468.538 121.824 470.719 122.163 472.849C113.045 476.379 101.885 482.35 95.7658 494.588C91.9375 502.245 95.0409 511.555 102.698 515.384C108.672 518.371 115.653 517.138 120.251 512.814C120.363 514.869 120.889 516.935 121.868 518.893C125.696 526.549 135.007 529.653 142.663 525.825C150.757 521.778 153.367 513.826 154.328 509.769C155.458 504.998 155.682 499.696 155.575 494.767C157.453 494.136 159.348 493.454 161.21 492.709C171.882 488.441 182.485 484.738 193.447 480.911L193.448 480.91L193.45 480.91L193.452 480.909C199.107 478.934 204.856 476.927 210.761 474.791C227.679 468.67 245.063 461.754 261.682 452.372C310.625 424.743 335.447 384.206 343.085 328.448C348.466 289.171 348.876 240.634 340.563 194.346C332.296 148.316 315.061 102.66 283.584 71.1827C258.82 46.4187 223.58 40.1824 191.015 39.164C174.455 38.646 157.66 39.4676 142.07 40.3739C139.715 40.5108 137.394 40.649 135.108 40.7853C131.852 40.9793 128.665 41.1691 125.549 41.3449ZM130.318 72.1239C130.272 86.836 130.184 101.544 130.097 116.244C129.51 214.582 128.926 312.544 140.961 408.819C141.221 410.897 142.408 416.342 144.277 424.909C144.474 425.812 144.679 426.75 144.891 427.723C146.977 437.299 149.523 449.18 151.596 460.939C151.659 461.299 151.722 461.66 151.785 462.022C151.843 462.357 151.901 462.693 151.959 463.03C162.546 458.866 173.501 455.038 184.107 451.332L184.11 451.331L184.116 451.329L184.117 451.329L184.119 451.328C189.61 449.409 195.009 447.523 200.214 445.64C216.629 439.701 232.091 433.478 246.443 425.377C286.055 403.015 305.902 371.47 312.372 324.241C317.365 287.79 317.723 242.547 310.051 199.826C302.332 156.847 286.827 118.266 261.664 93.103C245.613 77.0527 220.709 71.1078 190.046 70.1488C174.992 69.678 159.403 70.4186 143.869 71.3216C141.627 71.452 139.379 71.5863 137.13 71.7206L137.114 71.7216L137.094 71.7227C134.833 71.8578 132.572 71.9929 130.318 72.1239Z" fill="black"/>
<path d="M701.973 351.514C697.893 343.988 688.484 341.195 680.959 345.275C673.433 349.355 670.64 358.764 674.72 366.289C678.123 372.564 681.497 378.889 684.883 385.238L684.886 385.242L684.891 385.253L684.905 385.278C706.183 425.165 727.959 465.988 760.33 501.312C765.905 507.395 773.752 510.194 781.988 508.436C788.708 507.003 793.972 502.88 797.537 499.478C804.908 492.443 811.813 481.768 817.522 471.731C827.11 454.878 835.819 435.179 839.612 426.6C840.409 424.798 840.988 423.487 841.314 422.795C843.906 417.288 846.98 411.15 850.261 404.597C857.333 390.474 865.368 374.427 871.621 358.637C880.912 335.173 887.972 308.527 883.368 282.495C881.877 274.065 873.835 268.44 865.405 269.931C856.975 271.422 851.351 279.464 852.842 287.894C855.932 305.366 851.42 325.449 842.798 347.224C837.021 361.813 830.149 375.513 823.416 388.935L823.415 388.937L823.412 388.942C819.936 395.872 816.498 402.727 813.266 409.592C812.694 410.807 811.855 412.699 810.788 415.105L810.786 415.109C806.67 424.389 799.169 441.3 790.577 456.403C786.024 464.407 781.772 470.77 778.241 474.826C751.417 443.943 732.68 408.88 712.493 371.103L712.476 371.072C709.033 364.629 705.547 358.107 701.973 351.514Z" fill="black"/>
<path d="M25.2286 151.065C22.2465 151.303 18.6877 151.587 15.6611 151.587C7.10072 151.587 0.161133 144.648 0.161133 136.087C0.161133 127.527 7.10072 120.587 15.6611 120.587C17.3673 120.587 19.5942 120.412 22.9225 120.15L23.9347 120.07C27.4592 119.794 31.8613 119.47 36.2295 119.517C40.4694 119.563 45.7658 119.951 50.8449 121.656C56.1136 123.425 62.4223 127.085 66.068 134.376C69.8963 142.033 66.7929 151.343 59.1362 155.172C52.4039 158.538 44.3931 156.545 39.9545 150.81C39.1008 150.667 37.786 150.536 35.8942 150.515C33.0636 150.484 29.9119 150.696 26.3592 150.975C25.9937 151.004 25.616 151.034 25.2286 151.065Z" fill="black"/>
<path d="M15.6611 394.575C18.6877 394.575 22.2465 394.291 25.2286 394.053C25.616 394.022 25.9937 393.992 26.3592 393.963C29.9119 393.684 33.0636 393.472 35.8942 393.503C37.786 393.523 39.1008 393.655 39.9545 393.797C44.3931 399.533 52.4039 401.526 59.1362 398.159C66.7929 394.331 69.8963 385.021 66.068 377.364C62.4223 370.073 56.1136 366.413 50.8449 364.644C45.7658 362.939 40.4694 362.551 36.2295 362.505C31.8613 362.457 27.4592 362.781 23.9347 363.058L22.9227 363.137L22.9202 363.138C19.5932 363.4 17.3669 363.575 15.6611 363.575C7.10072 363.575 0.161133 370.515 0.161133 379.075C0.161133 387.636 7.10072 394.575 15.6611 394.575Z" fill="black"/>
</svg>
