<svg width="1158" height="1161" xmlns="http://www.w3.org/2000/svg" xmlns:xlink="http://www.w3.org/1999/xlink" xml:space="preserve" overflow="hidden"><g transform="translate(-1622 -656)"><path d="M1654.34 738.551 2135.48 1215.17C2145.45 1223.42 2143.36 1229.54 2135.6 1237.79 1987.47 1386.44 1832.15 1530.71 1680.43 1677.17L1642.78 1714.14 1634.13 1698.21C1629.24 1686.65 1625.44 1674.51 1622.87 1661.92L1622.15 1654.83 2030.87 1246.11C2042.71 1234.27 2042.71 1215.09 2030.87 1203.25L1626.5 798.878 1634.14 774.278C1639.03 762.712 1645.01 751.721 1651.96 741.434ZM1772.26 660.444 2332.24 1215.17C2342.22 1223.42 2340.13 1229.54 2332.37 1237.79 2184.24 1386.44 2028.92 1530.71 1877.2 1677.17L1747.63 1804.4 1737.03 1801.11C1725.47 1796.22 1714.48 1790.24 1704.19 1783.29L1691.7 1772.98 2213.57 1251.12 2217.82 1248.29C2232.98 1233.14 2232.98 1208.56 2217.82 1193.4L1710.3 685.888 1737.03 671.379ZM1877.37 656.185 1977.3 656.185 2364.59 1043.48 2367.41 1047.73C2382.57 1062.88 2407.14 1062.88 2422.3 1047.73L2738.16 731.874 2746.04 741.434C2766.89 772.295 2779.07 809.497 2779.07 849.543L2779.07 1622.95C2779.07 1729.74 2692.5 1816.31 2585.71 1816.31L1845.14 1816.31 2410.33 1251.12 2414.59 1248.29C2429.74 1233.14 2429.74 1208.56 2414.59 1193.4ZM2267.38 656.184 2511.91 656.185 2400.54 768.616C2392.29 778.591 2386.17 776.505 2377.92 768.743ZM2174.07 656.184 2364.59 846.706 2367.41 850.958C2382.57 866.116 2407.14 866.116 2422.3 850.958L2614.2 659.057 2624.68 660.112C2637.26 662.688 2649.4 666.487 2660.97 671.379L2681.01 682.255 2400.54 965.384C2392.29 975.359 2386.17 973.273 2377.92 965.511 2278.81 866.756 2181.66 764.807 2084.51 662.859L2078.12 656.184Z" fill="#FF6600" fill-rule="evenodd"/></g></svg>