<svg width="209" height="210" viewBox="0 0 209 210" fill="none" xmlns="http://www.w3.org/2000/svg">
<path fill-rule="evenodd" clip-rule="evenodd" d="M204.442 135.675L206.877 126.161C208.269 119.326 209 112.248 209 105C209 47.01 162.214 0 104.5 0C75.6433 0 49.5185 11.753 30.6076 30.754L27.0207 34.719L35.8135 43.554L39.2194 39.407C55.9262 22.62 79.0065 12.237 104.5 12.237C155.488 12.237 196.821 53.768 196.821 105C196.821 111.404 196.175 117.656 194.946 123.695L194.449 125.634L204.442 135.675ZM104.5 192.8C128.63 192.8 150.475 182.973 166.288 167.084L174.385 157.223L111.674 94.212C104.563 87.067 104.563 75.483 111.674 68.338C118.785 61.193 130.314 61.193 137.425 68.338L190.294 121.46L191.431 113.977C191.729 111.025 191.882 108.031 191.882 105C191.882 56.51 152.76 17.2 104.5 17.2C80.3702 17.2 58.5248 27.028 42.7117 42.916L39.3059 47.064L97.3259 105.361C104.437 112.506 104.437 124.09 97.3259 131.235C90.2151 138.38 78.686 138.38 71.5751 131.235L20.7264 80.143L18.8935 87.305C17.7296 93.021 17.1182 98.939 17.1182 105C17.1182 153.491 56.2402 192.8 104.5 192.8ZM104.5 210C136.964 210 165.97 195.126 185.137 171.79L186.74 169.636L177.878 160.732L169.781 170.593C153.074 187.38 129.994 197.763 104.5 197.763C53.5124 197.763 12.1789 156.231 12.1789 105C12.1789 95.394 13.632 86.129 16.3295 77.415L16.7802 76.178L7.29504 66.647L4.69824 73.776C1.64489 83.64 0.000197513 94.127 0 105C0 162.99 46.7862 210 104.5 210Z" fill="#EE6000"/>
</svg>
