<svg xmlns="http://www.w3.org/2000/svg" width="946" height="210" fill="none"><path fill="#EE6000" d="M639.69 30h-11.64l-44.3 131.46c-3.38 9.97 5.33 11.25 13.4 11.9 2.03.17 3.71.3 5.22.39l2.95.13v.12H943a50.74 50.74 0 0 1-2.7-3.7c-1.16-1.71-2.21-3.26-4.7-5.78l-1-1.02c-3.33-3.49-8.07-8.45-17.16-8.45h-298.1l-3.07-.15c-4.31 0-7.02-2.79-5.77-6.47l25.9-77.16h2.27c3.02 0 5.95-1.03 8.8-3.09a15.9 15.9 0 0 0 5.93-7.96l1.54-4.55h-13.26l4.95-14.62c1.02-3.03.82-5.63-.6-7.8S642.49 30 639.69 30Z"/><path fill="#EE6000" fill-rule="evenodd" d="M752.05 54c12.17 0 20.6 2.03 25.28 6.1 4.83 4.29 5.91 10.29 3.25 18l-10.08 29.24c-2.96 8.56-6.84 15.26-11.65 20.08-4.82 4.82-9.77 8.3-14.86 10.44a53.12 53.12 0 0 1-16 4.34c-5.3.53-9.9.8-13.82.8-7.82 0-13.95-2.09-18.38-6.26-4.42-4.18-4.98-11.09-1.65-20.73 3.1-9 7.98-15.42 14.64-19.28 6.65-3.85 14.33-6.42 23.03-7.7 1.09 0 2.45-.17 4.09-.49 1.63-.32 3.46-.59 5.49-.8 10-1.29 15.75-4.07 17.23-8.36 1.1-3.21.14-5.3-2.9-6.26a28.12 28.12 0 0 0-17.39-.16 14.3 14.3 0 0 0-6.87 4.82H709.6c3.16-6.64 8.09-12.1 14.78-16.39 7.57-4.93 16.79-7.39 27.66-7.39Zm.36 44.34c-3.57 1.5-8.28 2.9-14.16 4.18l-8.06 1.6c-4.28 1.07-7.59 2.47-9.92 4.18-2.33 2.36-3.9 4.71-4.72 7.07-1.1 3.21-1.01 5.78.28 7.7 1.37 1.72 3.9 2.58 7.6 2.58a26.5 26.5 0 0 0 16.11-5.14c4.66-3.43 8.03-8.14 10.1-14.14l2.77-8.03Z" clip-rule="evenodd"/><path fill="#EE6000" d="M834.32 54c9.43 0 17.26 2.48 23.51 7.44 6.26 4.96 6.83 15 1.74 30.09L842.53 142h-11.24c-3.21 0-5.5-1.02-6.83-3.07-1.35-2.05-1.47-4.7-.38-7.93l14.85-44c1.75-5.18 1.47-8.95-.84-11.32-2.3-2.38-5.38-3.56-9.24-3.56-3.86 0-7.68 1.18-11.48 3.56-3.8 2.37-6.57 6.14-8.32 11.32l-18.56 55H768l17.03-50.47c4.95-14.67 12.07-24.48 21.34-29.44 9.28-4.96 18.6-7.66 27.95-8.09ZM941.75 61.39c-5.02-4.93-13.16-7.39-24.42-7.39-10.39 0-19.67 2.46-27.86 7.39-8.12 5.36-13.57 12.1-16.37 20.24-2.2 6.43-1.81 11.57 1.2 15.42 2.57 3.86 9.11 7.18 19.63 9.96 1.73.65 4.43 1.29 8.11 1.93 8.43 1.93 11.98 4.82 10.66 8.68-.89 2.57-2.88 4.6-6 6.1a26.09 26.09 0 0 1-10.84 2.25c-5.41 0-9.37-1.07-11.88-3.21-2.3-2.14-2.82-5.36-1.56-9.64h-22.08l-.33.96c-3.24 9.43-2.56 16.6 2.02 21.53 4.37 4.93 12.72 7.39 25.06 7.39 12.99 0 23.54-2.36 31.65-7.07a39.62 39.62 0 0 0 17.9-21.85c2.2-6.42 1.91-11.56-.87-15.42-3.08-3.64-9.66-6.85-19.75-9.64-.87 0-1.75-.1-2.65-.32a27.1 27.1 0 0 1-3.08-.96c-10.44-2.36-15.08-5.25-13.9-8.68.88-2.57 2.52-4.5 4.91-5.78 2.61-1.29 6.07-1.93 10.4-1.93 4.55 0 7.79.96 9.72 2.9l1.72 2.56c.91 3.64 3.42 5.46 7.54 5.46h13.96c2.51-8.56 1.55-15.52-2.89-20.88ZM705.75 56H709l-7.83 22.95h-7.46c-6.28 0-11.44 1.51-15.5 4.53-4.06 3.02-7.19 7.76-9.4 14.23L653.72 142H631l14.23-41.7c2.86-8.41 6.51-15.47 10.95-21.18a57.82 57.82 0 0 1 14.9-13.74 58.9 58.9 0 0 1 16.87-7.12 73.17 73.17 0 0 1 17.8-2.26Z"/><path fill="#EE6000" fill-rule="evenodd" d="m204.44 135.68 2.44-9.52c1.39-6.83 2.12-13.91 2.12-21.16C209 47.01 162.21 0 104.5 0a103.93 103.93 0 0 0-73.9 30.75l-3.58 3.97 8.8 8.83 3.4-4.14a91.81 91.81 0 0 1 65.28-27.17c50.99 0 92.32 41.53 92.32 92.76 0 6.4-.64 12.66-1.87 18.7l-.5 1.93 10 10.05ZM104.5 192.8a86.9 86.9 0 0 0 61.79-25.72l8.1-9.86-62.72-63a18.36 18.36 0 0 1 0-25.88 18.15 18.15 0 0 1 25.76 0l52.86 53.12 1.14-7.48c.3-2.95.45-5.95.45-8.98 0-48.49-39.12-87.8-87.38-87.8a86.9 86.9 0 0 0-61.79 25.72l-3.4 4.14 58.02 58.3a18.36 18.36 0 0 1 0 25.88 18.15 18.15 0 0 1-25.75 0l-50.85-51.1-1.84 7.17A88.62 88.62 0 0 0 17.12 105c0 48.5 39.12 87.8 87.38 87.8Zm0 17.2a104.1 104.1 0 0 0 80.64-38.21l1.6-2.15-8.86-8.9-8.1 9.85a91.81 91.81 0 0 1-65.28 27.17c-50.99 0-92.32-41.53-92.32-92.76 0-9.6 1.45-18.87 4.15-27.58l.45-1.24-9.48-9.53-2.6 7.13A105.44 105.44 0 0 0 0 105c0 57.99 46.79 105 104.5 105Z" clip-rule="evenodd"/><path fill="#FFC000" fill-rule="evenodd" d="M495.74 30h11.48c3.15 0 5.47 1.12 6.95 3.37 1.49 2.25 1.7 4.95.62 8.1l-9.17 26.96a46.54 46.54 0 0 1 14.36-10.45 37.34 37.34 0 0 1 16-3.37c10.57 0 17.75 4.38 21.52 13.15 3.77 8.77 3.28 20.12-1.47 34.05-4.74 13.94-11.97 25.29-21.71 34.05a44.15 44.15 0 0 1-16.83 9.27 63.02 63.02 0 0 1-18.02 2.87c-10.8 0-19.86-2.81-27.17-8.43-7.32-5.62-8.26-16.4-2.83-32.36L495.74 30Zm27.28 44.84c-6.3 0-11.9 2.25-16.81 6.74-4.99 4.72-8.85 11.13-11.6 19.22-3.22 9.44-3.97 16.3-2.28 20.57 1.77 4.72 5.7 7.08 11.77 7.08 6.3 0 11.95-2.36 16.93-7.08 4.98-4.72 9-11.58 12.06-20.57 2.75-8.1 3.2-14.38 1.36-18.88-1.77-4.72-5.58-7.08-11.43-7.08ZM267.4 31h12.13c3.14 0 5.45 1.11 6.94 3.34 1.48 2.23 1.72 4.8.73 7.7l-16.37 47.8 39.86-32.76H339l-43.7 34.1L308.87 146h-28.3l-6.2-30.09c-1.31-6.02-3.36-8.58-6.13-7.69-2.78.9-4.47 2.23-5.08 4.02L251.59 146H228l39.4-115ZM589.14 31h11.83c3.07 0 5.32 1.1 6.77 3.27 1.44 2.18 1.65 4.8.6 7.86L606 49h-23l6.14-18ZM380.05 55c12.58 0 21.29 2.13 26.13 6.38 4.98 4.48 6.1 10.74 3.36 18.8l-10.42 30.55c-3.06 8.96-7.07 15.95-12.05 20.99-4.97 5.03-10.09 8.67-15.35 10.9a54.43 54.43 0 0 1-16.54 4.54c-5.47.56-10.22.84-14.27.84-8.08 0-14.41-2.18-18.99-6.55-4.57-4.36-5.15-11.58-1.71-21.65 3.2-9.4 8.25-16.12 15.13-20.15 6.87-4.03 14.8-6.71 23.8-8.05 1.12 0 2.53-.17 4.22-.5a63.9 63.9 0 0 1 5.67-.85c10.35-1.34 16.28-4.25 17.8-8.73 1.15-3.35.16-5.54-2.98-6.54-3.14-1.01-6.17-1.51-9.09-1.51-3.14 0-6.1.44-8.88 1.34-2.78.9-5.15 2.57-7.1 5.03H336.2c3.26-6.93 8.35-12.64 15.27-17.12 7.82-5.15 17.35-7.72 28.58-7.72Zm.37 46.33c-3.68 1.57-8.56 3.02-14.63 4.37l-8.32 1.68c-4.43 1.12-7.85 2.57-10.25 4.36-2.42 2.46-4.04 4.92-4.88 7.39-1.14 3.35-1.05 6.04.29 8.05 1.4 1.8 4.02 2.69 7.84 2.69 6.29 0 11.84-1.8 16.66-5.37 4.81-3.58 8.29-8.5 10.43-14.77l2.86-8.4ZM473.63 57H477l-8.13 23.76h-7.75c-6.52 0-11.88 1.56-16.1 4.68-4.2 3.12-7.46 8.03-9.75 14.72L419.58 146H396l14.77-43.16c2.98-8.7 6.77-16 11.38-21.92a59.96 59.96 0 0 1 15.48-14.22 61.3 61.3 0 0 1 17.5-7.36 76.27 76.27 0 0 1 18.5-2.34ZM579.97 57h11.93c3.1 0 5.37 1.12 6.83 3.35s1.66 4.9.6 8.03L573.2 146H550l29.97-89Z" clip-rule="evenodd"/></svg>