<svg xmlns="http://www.w3.org/2000/svg" width="946" height="306" fill="none"><path fill="#EE6000" d="M639.69 30h-11.64l-44.3 131.46c-3.38 9.97 5.33 11.25 13.4 11.9 2.03.17 3.71.3 5.22.39l2.95.13v.12H943a50.74 50.74 0 0 1-2.7-3.7c-1.16-1.71-2.21-3.26-4.7-5.78l-1-1.02c-3.33-3.49-8.07-8.45-17.16-8.45h-298.1l-3.07-.15c-4.31 0-7.02-2.79-5.77-6.47l25.9-77.16h2.27c3.02 0 5.95-1.03 8.8-3.09a15.9 15.9 0 0 0 5.93-7.96l1.54-4.55h-13.26l4.95-14.62c1.02-3.03.82-5.63-.6-7.8S642.49 30 639.69 30Z"/><path fill="#EE6000" fill-rule="evenodd" d="M752.05 54c12.17 0 20.6 2.03 25.28 6.1 4.83 4.29 5.91 10.29 3.25 18l-10.08 29.24c-2.96 8.56-6.84 15.26-11.65 20.08-4.82 4.82-9.77 8.3-14.86 10.44a53.12 53.12 0 0 1-16 4.34c-5.3.53-9.9.8-13.82.8-7.82 0-13.95-2.09-18.38-6.26-4.42-4.18-4.98-11.09-1.65-20.73 3.1-9 7.98-15.42 14.64-19.28 6.65-3.85 14.33-6.42 23.03-7.7 1.09 0 2.45-.17 4.09-.49 1.63-.32 3.46-.59 5.49-.8 10-1.29 15.75-4.07 17.23-8.36 1.1-3.21.14-5.3-2.9-6.26a28.12 28.12 0 0 0-17.39-.16 14.3 14.3 0 0 0-6.87 4.82H709.6c3.16-6.64 8.09-12.1 14.78-16.39 7.57-4.93 16.79-7.39 27.66-7.39Zm.36 44.34c-3.57 1.5-8.28 2.9-14.16 4.18l-8.06 1.6c-4.28 1.07-7.59 2.47-9.92 4.18-2.33 2.36-3.9 4.71-4.72 7.07-1.1 3.21-1.01 5.78.28 7.7 1.37 1.72 3.9 2.58 7.6 2.58a26.5 26.5 0 0 0 16.11-5.14c4.66-3.43 8.03-8.14 10.1-14.14l2.77-8.03Z" clip-rule="evenodd"/><path fill="#EE6000" d="M834.32 54c9.43 0 17.26 2.48 23.51 7.44 6.26 4.96 6.83 15 1.74 30.09L842.53 142h-11.24c-3.21 0-5.5-1.02-6.83-3.07-1.35-2.05-1.47-4.7-.38-7.93l14.85-44c1.75-5.18 1.47-8.95-.84-11.32-2.3-2.38-5.38-3.56-9.24-3.56-3.86 0-7.68 1.18-11.48 3.56-3.8 2.37-6.57 6.14-8.32 11.32l-18.56 55H768l17.03-50.47c4.95-14.67 12.07-24.48 21.34-29.44 9.28-4.96 18.6-7.66 27.95-8.09ZM941.75 61.39c-5.02-4.93-13.16-7.39-24.42-7.39-10.39 0-19.67 2.46-27.86 7.39-8.12 5.36-13.57 12.1-16.37 20.24-2.2 6.43-1.81 11.57 1.2 15.42 2.57 3.86 9.11 7.18 19.63 9.96 1.73.65 4.43 1.29 8.11 1.93 8.43 1.93 11.98 4.82 10.66 8.68-.89 2.57-2.88 4.6-6 6.1a26.09 26.09 0 0 1-10.84 2.25c-5.41 0-9.37-1.07-11.88-3.21-2.3-2.14-2.82-5.36-1.56-9.64h-22.08l-.33.96c-3.24 9.43-2.56 16.6 2.02 21.53 4.37 4.93 12.72 7.39 25.06 7.39 12.99 0 23.54-2.36 31.65-7.07a39.62 39.62 0 0 0 17.9-21.85c2.2-6.42 1.91-11.56-.87-15.42-3.08-3.64-9.66-6.85-19.75-9.64-.87 0-1.75-.1-2.65-.32a27.1 27.1 0 0 1-3.08-.96c-10.44-2.36-15.08-5.25-13.9-8.68.88-2.57 2.52-4.5 4.91-5.78 2.61-1.29 6.07-1.93 10.4-1.93 4.55 0 7.79.96 9.72 2.9l1.72 2.56c.91 3.64 3.42 5.46 7.54 5.46h13.96c2.51-8.56 1.55-15.52-2.89-20.88ZM705.75 56H709l-7.83 22.95h-7.46c-6.28 0-11.44 1.51-15.5 4.53-4.06 3.02-7.19 7.76-9.4 14.23L653.72 142H631l14.23-41.7c2.86-8.41 6.51-15.47 10.95-21.18a57.82 57.82 0 0 1 14.9-13.74 58.9 58.9 0 0 1 16.87-7.12 73.17 73.17 0 0 1 17.8-2.26Z"/><path fill="#EE6000" fill-rule="evenodd" d="m204.44 135.68 2.44-9.52c1.39-6.83 2.12-13.91 2.12-21.16C209 47.01 162.21 0 104.5 0a103.93 103.93 0 0 0-73.9 30.75l-3.58 3.97 8.8 8.83 3.4-4.14a91.81 91.81 0 0 1 65.28-27.17c50.99 0 92.32 41.53 92.32 92.76 0 6.4-.64 12.66-1.87 18.7l-.5 1.93 10 10.05ZM104.5 192.8a86.9 86.9 0 0 0 61.79-25.72l8.1-9.86-62.72-63a18.36 18.36 0 0 1 0-25.88 18.15 18.15 0 0 1 25.76 0l52.86 53.12 1.14-7.48c.3-2.95.45-5.95.45-8.98 0-48.49-39.12-87.8-87.38-87.8a86.9 86.9 0 0 0-61.79 25.72l-3.4 4.14 58.02 58.3a18.36 18.36 0 0 1 0 25.88 18.15 18.15 0 0 1-25.75 0l-50.85-51.1-1.84 7.17A88.62 88.62 0 0 0 17.12 105c0 48.5 39.12 87.8 87.38 87.8Zm0 17.2a104.1 104.1 0 0 0 80.64-38.21l1.6-2.15-8.86-8.9-8.1 9.85a91.81 91.81 0 0 1-65.28 27.17c-50.99 0-92.32-41.53-92.32-92.76 0-9.6 1.45-18.87 4.15-27.58l.45-1.24-9.48-9.53-2.6 7.13A105.44 105.44 0 0 0 0 105c0 57.99 46.79 105 104.5 105Z" clip-rule="evenodd"/><path fill="#FFC000" fill-rule="evenodd" d="M495.74 30h11.48c3.15 0 5.47 1.12 6.95 3.37 1.49 2.25 1.7 4.95.62 8.1l-9.17 26.96a46.54 46.54 0 0 1 14.36-10.45 37.34 37.34 0 0 1 16-3.37c10.57 0 17.75 4.38 21.52 13.15 3.77 8.77 3.28 20.12-1.47 34.05-4.74 13.94-11.97 25.29-21.71 34.05a44.15 44.15 0 0 1-16.83 9.27 63.02 63.02 0 0 1-18.02 2.87c-10.8 0-19.86-2.81-27.17-8.43-7.32-5.62-8.26-16.4-2.83-32.36L495.74 30Zm27.28 44.84c-6.3 0-11.9 2.25-16.81 6.74-4.99 4.72-8.85 11.13-11.6 19.22-3.22 9.44-3.97 16.3-2.28 20.57 1.77 4.72 5.7 7.08 11.77 7.08 6.3 0 11.95-2.36 16.93-7.08 4.98-4.72 9-11.58 12.06-20.57 2.75-8.1 3.2-14.38 1.36-18.88-1.77-4.72-5.58-7.08-11.43-7.08ZM267.4 31h12.13c3.14 0 5.45 1.11 6.94 3.34 1.48 2.23 1.72 4.8.73 7.7l-16.37 47.8 39.86-32.76H339l-43.7 34.1L308.87 146h-28.3l-6.2-30.09c-1.31-6.02-3.36-8.58-6.13-7.69-2.78.9-4.47 2.23-5.08 4.02L251.59 146H228l39.4-115ZM589.14 31h11.83c3.07 0 5.32 1.1 6.77 3.27 1.44 2.18 1.65 4.8.6 7.86L606 49h-23l6.14-18ZM380.05 55c12.58 0 21.29 2.13 26.13 6.38 4.98 4.48 6.1 10.74 3.36 18.8l-10.42 30.55c-3.06 8.96-7.07 15.95-12.05 20.99-4.97 5.03-10.09 8.67-15.35 10.9a54.43 54.43 0 0 1-16.54 4.54c-5.47.56-10.22.84-14.27.84-8.08 0-14.41-2.18-18.99-6.55-4.57-4.36-5.15-11.58-1.71-21.65 3.2-9.4 8.25-16.12 15.13-20.15 6.87-4.03 14.8-6.71 23.8-8.05 1.12 0 2.53-.17 4.22-.5a63.9 63.9 0 0 1 5.67-.85c10.35-1.34 16.28-4.25 17.8-8.73 1.15-3.35.16-5.54-2.98-6.54-3.14-1.01-6.17-1.51-9.09-1.51-3.14 0-6.1.44-8.88 1.34-2.78.9-5.15 2.57-7.1 5.03H336.2c3.26-6.93 8.35-12.64 15.27-17.12 7.82-5.15 17.35-7.72 28.58-7.72Zm.37 46.33c-3.68 1.57-8.56 3.02-14.63 4.37l-8.32 1.68c-4.43 1.12-7.85 2.57-10.25 4.36-2.42 2.46-4.04 4.92-4.88 7.39-1.14 3.35-1.05 6.04.29 8.05 1.4 1.8 4.02 2.69 7.84 2.69 6.29 0 11.84-1.8 16.66-5.37 4.81-3.58 8.29-8.5 10.43-14.77l2.86-8.4ZM473.63 57H477l-8.13 23.76h-7.75c-6.52 0-11.88 1.56-16.1 4.68-4.2 3.12-7.46 8.03-9.75 14.72L419.58 146H396l14.77-43.16c2.98-8.7 6.77-16 11.38-21.92a59.96 59.96 0 0 1 15.48-14.22 61.3 61.3 0 0 1 17.5-7.36 76.27 76.27 0 0 1 18.5-2.34ZM579.97 57h11.93c3.1 0 5.37 1.12 6.83 3.35s1.66 4.9.6 8.03L573.2 146H550l29.97-89Z" clip-rule="evenodd"/><path fill="#EE6000" d="M18.27 294.43a3.27 3.27 0 0 1-2.41-.86 3.42 3.42 0 0 1-.81-2.42v-38.07c0-1.08.27-1.88.8-2.42.58-.53 1.4-.8 2.42-.8 1.04 0 1.82.26 2.36.8.58.54.87 1.34.87 2.42v16.86h.12l19.04-18.41c.62-.58 1.2-1 1.73-1.24a4.24 4.24 0 0 1 1.92-.43c.95 0 1.64.24 2.05.74.45.46.64 1.01.56 1.67-.08.66-.44 1.3-1.06 1.93L27.8 271.4l19 18.31c.74.7 1.13 1.43 1.17 2.17.04.75-.18 1.37-.68 1.86a3 3 0 0 1-2.1.68c-.83 0-1.5-.16-2-.5-.49-.32-1.07-.8-1.73-1.42l-19.84-18.9h-.12v17.54c0 1.03-.27 1.84-.8 2.42-.55.57-1.35.86-2.43.86ZM409.87 294.43c-1.04 0-1.82-.26-2.36-.8a3.33 3.33 0 0 1-.8-2.36v-24.8c0-1.03.26-1.82.8-2.35.54-.54 1.28-.81 2.23-.81 1 0 1.74.27 2.23.8.54.54.81 1.33.81 2.36v2.74a9.14 9.14 0 0 1 3.04-3.85c1.78-1.29 4.05-2.03 6.82-2.24.74-.04 1.32.15 1.73.56.46.42.7 1.06.75 1.92.08.87-.1 1.57-.56 2.11-.45.5-1.16.79-2.1.87l-1.19.12c-2.68.25-4.73 1.1-6.13 2.55-1.4 1.44-2.11 3.43-2.11 5.95v14.07c0 1-.27 1.78-.8 2.36-.5.54-1.29.8-2.36.8Z"/><path fill="#EE6000" fill-rule="evenodd" d="M379.05 292.7a18.4 18.4 0 0 0 8.55 1.86c1.74 0 3.54-.23 5.4-.68 1.86-.5 3.49-1.22 4.9-2.17a3.67 3.67 0 0 0 1.3-1.37c.24-.53.33-1.05.24-1.55-.08-.5-.3-.9-.68-1.24a2.06 2.06 0 0 0-1.36-.56 3.28 3.28 0 0 0-1.86.56 12.9 12.9 0 0 1-3.97 1.68c-1.36.33-2.67.5-3.9.5-3.27 0-5.77-.92-7.5-2.74-1.45-1.58-2.28-3.81-2.5-6.7h19.73c.82 0 1.44-.16 1.86-.49.41-.37.62-.9.62-1.61 0-2.31-.31-4.4-.93-6.26a12 12 0 0 0-2.67-4.71 10.9 10.9 0 0 0-4.21-2.98 14.3 14.3 0 0 0-5.65-1.05 14.11 14.11 0 0 0-12.9 7.5 16.99 16.99 0 0 0-1.91 8.24c0 3.23.64 6.02 1.92 8.37a13.85 13.85 0 0 0 5.52 5.4Zm-1.33-16.25c.15-1.36.47-2.6.95-3.72a8.65 8.65 0 0 1 3.04-3.78 8.74 8.74 0 0 1 4.96-1.36c1.74 0 3.18.4 4.34 1.18a6.63 6.63 0 0 1 2.67 3.28c.53 1.24.83 2.7.9 4.4h-16.86Z" clip-rule="evenodd"/><path fill="#EE6000" d="M363.96 294.56c-2.48 0-4.57-.44-6.26-1.3a8.31 8.31 0 0 1-3.79-3.85 14.04 14.04 0 0 1-1.24-6.2v-14.63h-3.72c-.82 0-1.46-.2-1.92-.62a2.43 2.43 0 0 1-.68-1.8c0-.78.23-1.38.68-1.8.46-.4 1.1-.62 1.92-.62h3.72v-6.38c0-1.04.27-1.82.81-2.36.58-.53 1.36-.8 2.36-.8.99 0 1.75.27 2.29.8.54.54.8 1.32.8 2.36v6.38h7.26c.83 0 1.47.21 1.92.62.46.42.68 1.02.68 1.8 0 .75-.22 1.34-.68 1.8-.45.41-1.1.62-1.92.62h-7.25v14.14c0 2.19.45 3.84 1.36 4.96.95 1.11 2.48 1.67 4.59 1.67.74 0 1.38-.06 1.92-.19a9.08 9.08 0 0 1 1.43-.3c.45 0 .82.16 1.11.49.3.29.44.87.44 1.74 0 .62-.13 1.2-.38 1.73-.2.54-.6.9-1.17 1.06-.5.16-1.18.3-2.05.43-.83.17-1.57.25-2.23.25ZM326.3 293.94c1.94.41 3.82.62 5.63.62 3.77 0 6.78-.83 9.06-2.48a7.91 7.91 0 0 0 3.4-6.76c0-2.2-.7-3.93-2.1-5.2-1.37-1.29-3.39-2.2-6.08-2.74l-5.89-1.17a6.03 6.03 0 0 1-3.1-1.43c-.66-.66-.99-1.5-.99-2.54 0-1.37.54-2.44 1.61-3.23 1.12-.82 2.77-1.24 4.96-1.24a13.45 13.45 0 0 1 7.32 2.17c.58.3 1.1.42 1.55.38.5-.09.9-.3 1.24-.62.33-.38.54-.79.62-1.24a2.2 2.2 0 0 0-1.12-2.55c-1.36-.9-2.85-1.59-4.46-2.04a18.86 18.86 0 0 0-5.15-.68c-2.44 0-4.59.39-6.44 1.17a9.7 9.7 0 0 0-4.35 3.23 8.15 8.15 0 0 0-1.55 4.96c0 2.1.67 3.84 1.99 5.2 1.32 1.37 3.26 2.32 5.83 2.86l5.89 1.18c1.48.33 2.6.8 3.34 1.42.75.58 1.12 1.4 1.12 2.48 0 1.32-.56 2.38-1.67 3.16-1.12.79-2.77 1.18-4.96 1.18-1.45 0-2.92-.16-4.4-.5a18.84 18.84 0 0 1-4.66-1.92 2.4 2.4 0 0 0-1.55-.3c-.45.08-.84.3-1.17.68-.3.33-.48.74-.56 1.24-.04.45.04.9.25 1.36.2.46.58.87 1.11 1.24 1.62 1 3.37 1.7 5.27 2.1Z"/><path fill="#EE6000" fill-rule="evenodd" d="M302.23 294.56c-3.3 0-6.16-.62-8.56-1.86a13.85 13.85 0 0 1-5.51-5.4 17.26 17.26 0 0 1-1.93-8.37c0-3.14.64-5.89 1.93-8.24a14.11 14.11 0 0 1 12.9-7.5c2.1 0 3.98.35 5.63 1.05a10.9 10.9 0 0 1 4.22 2.98 12 12 0 0 1 2.67 4.7c.62 1.87.93 3.95.93 6.27 0 .7-.21 1.24-.62 1.61-.42.33-1.04.5-1.86.5H292.3c.22 2.88 1.05 5.1 2.5 6.7 1.73 1.81 4.23 2.72 7.5 2.72 1.23 0 2.53-.16 3.9-.5a12.9 12.9 0 0 0 3.97-1.67c.7-.41 1.32-.6 1.86-.56.58.05 1.03.23 1.36.56.37.33.6.75.68 1.24.08.5 0 1.01-.25 1.55-.24.5-.68.95-1.3 1.37-1.4.95-3.03 1.67-4.9 2.17-1.86.45-3.65.68-5.39.68Zm-8.93-21.83c-.48 1.12-.8 2.36-.95 3.72h16.87c-.08-1.7-.38-3.16-.91-4.4a6.63 6.63 0 0 0-2.67-3.28 7.56 7.56 0 0 0-4.34-1.18c-1.94 0-3.6.45-4.96 1.36a8.65 8.65 0 0 0-3.04 3.78Z" clip-rule="evenodd"/><path fill="#EE6000" d="M267.06 293.57c.58.57 1.39.86 2.42.86 1.08 0 1.86-.29 2.36-.86.54-.58.8-1.39.8-2.42v-35.47h13.15a3 3 0 0 0 2.1-.68c.5-.5.75-1.18.75-2.04 0-.87-.25-1.53-.74-1.99a3 3 0 0 0-2.11-.68h-32.67c-.87 0-1.55.23-2.05.68-.5.46-.74 1.12-.74 1.99 0 .86.24 1.55.74 2.04.5.46 1.18.68 2.05.68h13.14v35.47c0 1.03.27 1.84.8 2.42ZM215.23 294.43a3.26 3.26 0 0 1-2.41-.86 3.42 3.42 0 0 1-.81-2.42v-35.47h-13.14c-.87 0-1.55-.22-2.05-.68-.5-.5-.74-1.18-.74-2.04 0-.87.24-1.53.74-1.99.5-.45 1.18-.68 2.05-.68h32.67a3 3 0 0 1 2.1.68c.5.46.75 1.12.75 1.99 0 .86-.25 1.55-.74 2.04a3 3 0 0 1-2.11.68H218.4v35.47c0 1.03-.27 1.84-.81 2.42-.5.57-1.28.86-2.36.86ZM185.56 293.57c.58.57 1.39.86 2.42.86 1.07 0 1.88-.29 2.42-.86.53-.58.8-1.39.8-2.42v-38c0-1.08-.29-1.89-.86-2.43-.54-.57-1.33-.86-2.36-.86-1.03 0-1.84.28-2.42.86-.54.54-.8 1.35-.8 2.42v38c0 1.04.26 1.85.8 2.43Z"/><path fill="#EE6000" fill-rule="evenodd" d="M145.97 294a3.67 3.67 0 0 1-2.6-.87 3.67 3.67 0 0 1-.88-2.6v-36.77c0-1.11.3-1.96.87-2.54a3.52 3.52 0 0 1 2.6-.93h14.76c3.02 0 5.58.46 7.69 1.36 2.15.91 3.78 2.22 4.9 3.91a10.62 10.62 0 0 1 1.73 6.14c0 2.64-.78 4.88-2.35 6.7a10.97 10.97 0 0 1-4.52 3.09 10.7 10.7 0 0 1 5.32 3.1c1.74 1.86 2.6 4.3 2.6 7.32 0 3.88-1.27 6.88-3.84 8.99-2.56 2.07-6.16 3.1-10.78 3.1h-15.5Zm2.72-4.96h12.03c3.1 0 5.4-.6 6.88-1.8 1.5-1.24 2.24-3.1 2.24-5.58s-.75-4.32-2.24-5.52c-1.48-1.2-3.78-1.8-6.88-1.8H148.7v14.7Zm0-19.65h11.04c2.98 0 5.23-.6 6.76-1.8 1.53-1.2 2.3-2.96 2.3-5.27 0-2.32-.77-4.07-2.3-5.27-1.53-1.2-3.78-1.8-6.76-1.8h-11.04v14.14ZM101.34 293.57c.58.57 1.39.86 2.42.86 1.07 0 1.88-.29 2.42-.86.53-.58.8-1.39.8-2.42v-15.2h7c1.83 0 3.3.3 4.41.88 1.12.53 2.1 1.6 2.98 3.22l6.5 12.03c.46.78.96 1.38 1.5 1.8.57.37 1.32.55 2.23.55.87 0 1.53-.2 1.98-.62a2 2 0 0 0 .74-1.6c.05-.71-.14-1.43-.55-2.18l-5.34-9.92c-.99-1.82-2.1-3.14-3.34-3.97a6.7 6.7 0 0 0-1.68-.83c1.15-.25 2.2-.59 3.17-1.03 2.23-.99 3.92-2.43 5.08-4.34a12.87 12.87 0 0 0 1.74-6.82c0-4.09-1.29-7.25-3.85-9.48-2.56-2.23-6.2-3.35-10.91-3.35h-14.82c-1.03 0-1.84.29-2.42.87-.58.53-.87 1.34-.87 2.42v37.57c0 1.03.27 1.84.81 2.42Zm16.24-22.45h-10.6v-15.68h10.6c3.15 0 5.52.66 7.14 1.98 1.6 1.32 2.41 3.26 2.41 5.83 0 2.6-.8 4.56-2.41 5.89-1.62 1.32-4 1.98-7.14 1.98ZM54.63 294.43c-.82 0-1.48-.18-1.98-.55-.5-.38-.78-.87-.87-1.5-.08-.61.04-1.31.37-2.1l16.8-37.7c.42-.99.94-1.7 1.56-2.1a4.02 4.02 0 0 1 2.17-.62c.74 0 1.42.2 2.04.62.66.4 1.2 1.11 1.61 2.1l16.8 37.7c.38.79.52 1.5.44 2.17a2.23 2.23 0 0 1-.8 1.49c-.46.33-1.1.5-1.93.5-.9 0-1.63-.23-2.17-.69a5.69 5.69 0 0 1-1.42-2.1l-3.6-8.31H61.53l-3.54 8.3c-.41 1-.87 1.72-1.36 2.17a3 3 0 0 1-1.99.62Zm17.92-37.01-8.73 20.7h17.65l-8.8-20.7h-.12Z" clip-rule="evenodd"/><path fill="#EE6000" d="M501.96 293.63c.54.54 1.33.8 2.36.8 1.07 0 1.86-.26 2.36-.8.53-.58.8-1.37.8-2.36V277.2c0-2.52.7-4.5 2.1-5.95 1.42-1.45 3.46-2.3 6.15-2.55l1.17-.12c.96-.08 1.66-.37 2.11-.87.46-.53.64-1.24.56-2.1-.04-.87-.29-1.51-.74-1.93-.42-.41-1-.6-1.74-.56-2.77.21-5.04.95-6.82 2.24a9.14 9.14 0 0 0-3.04 3.85v-2.74c0-1.03-.27-1.82-.8-2.35-.5-.54-1.24-.81-2.24-.81-.94 0-1.69.27-2.23.8-.53.54-.8 1.33-.8 2.36v24.8c0 1 .27 1.78.8 2.36Z"/><path fill="#EE6000" fill-rule="evenodd" d="M479.25 294.56c-3.06 0-5.7-.64-7.94-1.92-2.2-1.28-3.9-3.1-5.15-5.46a17.6 17.6 0 0 1-1.86-8.3c0-2.45.35-4.62 1.06-6.52.7-1.9 1.7-3.53 2.97-4.9 1.32-1.4 2.9-2.45 4.72-3.16a16.55 16.55 0 0 1 6.2-1.11c3.01 0 5.62.64 7.8 1.92a13.26 13.26 0 0 1 5.21 5.45 17.37 17.37 0 0 1 1.87 8.31c0 2.4-.36 4.57-1.06 6.51-.7 1.94-1.71 3.6-3.04 4.96a12.98 12.98 0 0 1-4.7 3.16c-1.83.7-3.85 1.06-6.08 1.06Zm0-4.84c1.69 0 3.18-.41 4.46-1.24a8.02 8.02 0 0 0 2.98-3.66c.74-1.6 1.11-3.6 1.11-5.95 0-3.55-.79-6.24-2.36-8.06a7.8 7.8 0 0 0-6.2-2.73c-1.73 0-3.24.42-4.52 1.24a7.98 7.98 0 0 0-3.04 3.6c-.7 1.61-1.05 3.6-1.05 5.95 0 3.51.78 6.2 2.35 8.06a7.78 7.78 0 0 0 6.26 2.8Z" clip-rule="evenodd"/><path fill="#EE6000" d="M448.06 293.63c.58.54 1.36.8 2.35.8 2.07 0 3.1-1.05 3.1-3.16v-22.69h6.02c.87 0 1.5-.2 1.92-.62.45-.45.68-1.05.68-1.8 0-.78-.23-1.38-.68-1.8-.41-.4-1.05-.62-1.92-.62h-6.02v-1.42c0-2.4.56-4.18 1.68-5.33 1.11-1.2 2.9-1.9 5.33-2.11l1.18-.06c.5-.04.9-.25 1.24-.62.33-.38.54-.79.62-1.24.12-.5.12-.97 0-1.43-.13-.46-.4-.83-.8-1.12-.42-.28-.98-.39-1.68-.3l-1.92.12c-3.89.37-6.84 1.61-8.87 3.72-2.03 2.06-3.04 5.14-3.04 9.24v.55h-3.47c-.78 0-1.4.21-1.86.62-.45.42-.68 1.02-.68 1.8 0 .75.23 1.34.68 1.8.45.41 1.07.62 1.86.62h3.47v22.7c0 .98.27 1.77.8 2.35ZM707.66 294.56c-2.48 0-4.57-.44-6.26-1.3a8.32 8.32 0 0 1-3.78-3.85 14.06 14.06 0 0 1-1.24-6.2v-14.63h-3.72c-.83 0-1.47-.2-1.93-.62a2.43 2.43 0 0 1-.68-1.8c0-.78.23-1.38.68-1.8.46-.4 1.1-.62 1.93-.62h3.72v-6.38c0-1.04.26-1.82.8-2.36.58-.53 1.37-.8 2.36-.8.99 0 1.75.27 2.3.8.53.54.8 1.32.8 2.36v6.38h7.25c.83 0 1.47.21 1.92.62.46.42.69 1.02.69 1.8 0 .75-.23 1.34-.69 1.8-.45.41-1.1.62-1.92.62h-7.25v14.14c0 2.19.45 3.84 1.36 4.96.95 1.11 2.48 1.67 4.59 1.67.74 0 1.38-.06 1.92-.19a9.08 9.08 0 0 1 1.43-.3c.45 0 .82.16 1.11.49.3.29.44.87.44 1.74 0 .62-.13 1.2-.37 1.73-.21.54-.6.9-1.18 1.06-.5.16-1.18.3-2.05.43-.82.17-1.57.25-2.23.25ZM680.5 293.5c.53.58 1.3.87 2.29.87 1.03 0 1.82-.29 2.35-.87.54-.62.81-1.46.81-2.54v-24.18c0-1.07-.29-1.9-.87-2.48-.54-.58-1.3-.87-2.3-.87-.98 0-1.75.3-2.29.87-.53.58-.8 1.4-.8 2.48v24.18c0 1.08.27 1.92.8 2.54ZM679.87 256.06c.7.62 1.68.93 2.92.93s2.19-.31 2.85-.93a3.29 3.29 0 0 0 1.05-2.6c0-1.17-.35-2.03-1.05-2.61-.66-.62-1.61-.93-2.85-.93s-2.21.3-2.92.93c-.66.58-.99 1.44-.99 2.6a3.4 3.4 0 0 0 1 2.6Z"/><path fill="#EE6000" fill-rule="evenodd" d="M659.3 294.56c-2.64 0-4.94-.66-6.88-1.99a9.92 9.92 0 0 1-3.22-3.67v2.37c0 1-.27 1.78-.81 2.36-.54.54-1.28.8-2.23.8-1 0-1.76-.26-2.3-.8a3.33 3.33 0 0 1-.8-2.36v-38.25c0-1.03.27-1.82.8-2.36.54-.53 1.3-.8 2.3-.8.99 0 1.75.26 2.3.8.57.54.86 1.33.86 2.36v15.55a9.36 9.36 0 0 1 3.16-3.4 11.82 11.82 0 0 1 6.82-1.98c2.73 0 5.09.64 7.07 1.92a12.51 12.51 0 0 1 4.59 5.4 19.13 19.13 0 0 1 1.67 8.36c0 3.19-.56 5.98-1.67 8.37a12.3 12.3 0 0 1-4.65 5.46 12.94 12.94 0 0 1-7 1.86Zm-1.55-4.84c1.74 0 3.25-.41 4.53-1.24a8 8 0 0 0 2.97-3.66c.7-1.6 1.06-3.6 1.06-5.95 0-3.55-.79-6.24-2.36-8.06a7.68 7.68 0 0 0-6.2-2.73c-1.7 0-3.2.42-4.52 1.24a7.64 7.64 0 0 0-2.98 3.6 14.9 14.9 0 0 0-1.05 5.95c0 3.51.78 6.2 2.35 8.06a7.72 7.72 0 0 0 6.2 2.8Z" clip-rule="evenodd"/><path fill="#EE6000" d="M620.73 293.63c.54.54 1.33.8 2.36.8 1.07 0 1.86-.26 2.36-.8.53-.58.8-1.37.8-2.36V277.2c0-2.52.7-4.5 2.11-5.95 1.4-1.45 3.45-2.3 6.14-2.55l1.18-.12c.95-.08 1.65-.37 2.1-.87.46-.53.64-1.24.56-2.1-.04-.87-.29-1.51-.74-1.93-.42-.41-1-.6-1.74-.56-2.77.21-5.04.95-6.82 2.24a9.13 9.13 0 0 0-3.04 3.85v-2.74c0-1.03-.26-1.82-.8-2.35-.5-.54-1.24-.81-2.23-.81-.95 0-1.7.27-2.24.8-.53.54-.8 1.33-.8 2.36v24.8c0 1 .27 1.78.8 2.36Z"/><path fill="#EE6000" fill-rule="evenodd" d="M596.3 294.56c-2.1 0-4.01-.42-5.7-1.24a10 10 0 0 1-3.91-3.35c-.95-1.4-1.43-3-1.43-4.77 0-2.24.56-4 1.68-5.27 1.15-1.33 3.04-2.26 5.64-2.8 2.64-.57 6.2-.86 10.66-.86h2.11v-1.61c0-2.36-.5-4.06-1.49-5.09-.99-1.03-2.62-1.55-4.9-1.55-1.32 0-2.7.17-4.15.5-1.4.33-2.87.89-4.4 1.67-.7.33-1.3.44-1.8.31-.5-.12-.89-.4-1.18-.8a3.1 3.1 0 0 1-.5-1.43c0-.54.13-1.05.38-1.55.29-.5.76-.87 1.43-1.12a23.87 23.87 0 0 1 10.41-2.41c2.77 0 5.04.43 6.82 1.3a8.36 8.36 0 0 1 4.03 3.97c.87 1.77 1.3 4.07 1.3 6.88v15.93c0 1-.24 1.78-.74 2.36-.5.54-1.22.8-2.17.8-.91 0-1.63-.26-2.17-.8a3.32 3.32 0 0 1-.8-2.36v-2.24a8.56 8.56 0 0 1-4.59 4.66c-1.33.58-2.84.87-4.53.87Zm9.05-12.77v-1.68h-2.04c-2.98 0-5.34.15-7.07.44-1.74.28-2.98.78-3.72 1.48-.7.67-1.06 1.6-1.06 2.8a5 5 0 0 0 1.62 3.84c1.07.95 2.56 1.42 4.46 1.42 1.53 0 2.87-.35 4.03-1.05a8.53 8.53 0 0 0 3.78-7.25Z" clip-rule="evenodd"/><path fill="#EE6000" d="M548.28 293.57c.57.57 1.38.86 2.41.86 1.08 0 1.88-.29 2.42-.86.54-.58.8-1.39.8-2.42V273.6h.13l19.84 18.91c.66.62 1.24 1.1 1.74 1.43.5.33 1.15.5 1.98.5a3 3 0 0 0 2.11-.69c.5-.5.72-1.11.68-1.86-.04-.74-.43-1.46-1.18-2.17l-19-18.3 18.07-17.22c.62-.62.98-1.26 1.06-1.93.08-.66-.1-1.22-.56-1.67-.41-.5-1.1-.74-2.05-.74-.7 0-1.34.14-1.92.43-.54.25-1.11.66-1.73 1.24l-19.04 18.41h-.12v-16.86c0-1.08-.3-1.88-.87-2.42-.54-.53-1.32-.8-2.36-.8-1.03 0-1.84.26-2.41.8-.54.54-.81 1.34-.81 2.42v38.07c0 1.03.27 1.84.8 2.42Z"/><path fill="#EE6000" fill-rule="evenodd" d="M917.17 294.56c-3.3 0-6.15-.62-8.55-1.86a13.85 13.85 0 0 1-5.52-5.4 17.27 17.27 0 0 1-1.92-8.37 17 17 0 0 1 1.92-8.24 14.12 14.12 0 0 1 12.9-7.5c2.1 0 3.99.35 5.64 1.05 1.65.66 3.06 1.65 4.22 2.98a11.98 11.98 0 0 1 2.66 4.7c.62 1.87.93 3.95.93 6.27 0 .7-.2 1.24-.62 1.61-.41.33-1.03.5-1.86.5h-19.72c.21 2.88 1.04 5.1 2.49 6.7 1.73 1.81 4.23 2.72 7.5 2.72 1.24 0 2.54-.16 3.9-.5a12.9 12.9 0 0 0 3.97-1.67c.7-.41 1.32-.6 1.86-.56.58.05 1.03.23 1.37.56.37.33.6.75.68 1.24.08.5 0 1.01-.25 1.55-.25.5-.68.95-1.3 1.37-1.4.95-3.04 1.67-4.9 2.17-1.86.45-3.66.68-5.4.68Zm-8.92-21.83c-.49 1.12-.8 2.36-.96 3.72h16.87c-.07-1.7-.38-3.16-.9-4.4a6.62 6.62 0 0 0-2.67-3.28 7.56 7.56 0 0 0-4.35-1.18c-1.94 0-3.6.45-4.96 1.36a8.67 8.67 0 0 0-3.03 3.78Z" clip-rule="evenodd"/><path fill="#EE6000" d="M886.75 291.77c1.65 1.86 4.09 2.79 7.31 2.79.38 0 .77-.02 1.18-.06.41 0 .8-.02 1.18-.07.83-.12 1.43-.4 1.8-.86.37-.5.55-1.18.55-2.05 0-.95-.1-1.57-.3-1.86-.21-.33-.56-.48-1.06-.43l-.87.12h-.99c-1.61 0-2.85-.5-3.72-1.49-.83-1.03-1.24-2.58-1.24-4.65v-30.2c0-1.02-.29-1.81-.87-2.35-.54-.53-1.3-.8-2.3-.8-.98 0-1.75.26-2.28.8-.54.54-.81 1.33-.81 2.36v30.56c0 3.56.8 6.29 2.42 8.19Z"/><path fill="#EE6000" fill-rule="evenodd" d="M850.8 305.6c-1 0-1.76-.28-2.3-.81-.53-.54-.8-1.33-.8-2.36v-35.96c0-1.03.27-1.82.8-2.35.54-.54 1.28-.81 2.24-.81.99 0 1.75.27 2.29.8.54.54.8 1.33.8 2.36v2.37a9.6 9.6 0 0 1 3.23-3.6 11.67 11.67 0 0 1 6.88-2.05c2.69 0 5.02.64 7 1.92a12.38 12.38 0 0 1 4.66 5.4 19.13 19.13 0 0 1 1.67 8.36c0 3.19-.56 5.98-1.67 8.37a12.46 12.46 0 0 1-4.59 5.46 13.06 13.06 0 0 1-7.07 1.86c-2.6 0-4.88-.66-6.82-1.99a9.7 9.7 0 0 1-3.16-3.46v13.32c0 1.03-.29 1.82-.87 2.36-.54.53-1.3.8-2.3.8Zm11.6-15.88c1.73 0 3.24-.41 4.52-1.24a8.02 8.02 0 0 0 2.97-3.66c.7-1.6 1.06-3.6 1.06-5.95 0-3.55-.79-6.24-2.36-8.06a7.68 7.68 0 0 0-6.2-2.73c-1.7 0-3.2.42-4.52 1.24a7.64 7.64 0 0 0-2.98 3.6c-.7 1.61-1.05 3.6-1.05 5.95 0 3.51.78 6.2 2.35 8.06a7.72 7.72 0 0 0 6.2 2.8ZM817.85 292.64a15.68 15.68 0 0 0 7.93 1.92c2.24 0 4.26-.35 6.08-1.06 1.86-.74 3.43-1.8 4.71-3.16a13.7 13.7 0 0 0 3.04-4.96c.7-1.94 1.05-4.11 1.05-6.5 0-3.23-.62-6-1.86-8.32a13.26 13.26 0 0 0-5.2-5.45 15.2 15.2 0 0 0-7.82-1.92c-2.27 0-4.33.37-6.2 1.11-1.81.7-3.38 1.76-4.7 3.16a14.3 14.3 0 0 0-2.98 4.9c-.7 1.9-1.06 4.07-1.06 6.51 0 3.19.62 5.95 1.86 8.31a13.39 13.39 0 0 0 5.15 5.46Zm12.4-4.16a8.05 8.05 0 0 1-4.47 1.24c-2.6 0-4.69-.93-6.26-2.79-1.57-1.86-2.35-4.55-2.35-8.06 0-2.35.35-4.34 1.05-5.95a7.99 7.99 0 0 1 3.04-3.6 8.16 8.16 0 0 1 4.52-1.24c2.57 0 4.63.91 6.2 2.73 1.58 1.82 2.36 4.5 2.36 8.06 0 2.36-.37 4.34-1.12 5.95a8 8 0 0 1-2.97 3.66ZM793.54 294.56c-3.3 0-6.16-.62-8.56-1.86a13.85 13.85 0 0 1-5.52-5.4 17.27 17.27 0 0 1-1.92-8.37 17 17 0 0 1 1.92-8.24 14.13 14.13 0 0 1 12.9-7.5c2.1 0 3.99.35 5.64 1.05a10.9 10.9 0 0 1 4.22 2.98 12 12 0 0 1 2.66 4.7c.62 1.87.93 3.95.93 6.27 0 .7-.2 1.24-.62 1.61-.4.33-1.03.5-1.86.5h-19.72c.22 2.88 1.04 5.1 2.49 6.7 1.73 1.81 4.24 2.72 7.5 2.72 1.24 0 2.54-.16 3.9-.5a12.9 12.9 0 0 0 3.97-1.67c.7-.41 1.33-.6 1.86-.56.58.05 1.04.23 1.37.56.37.33.6.75.68 1.24.08.5 0 1.01-.25 1.55-.25.5-.68.95-1.3 1.37-1.4.95-3.04 1.67-4.9 2.17-1.86.45-3.66.68-5.4.68Zm-8.93-21.83c-.48 1.12-.8 2.36-.95 3.72h16.87c-.08-1.7-.38-3.16-.91-4.4a6.63 6.63 0 0 0-2.67-3.28 7.56 7.56 0 0 0-4.34-1.18c-1.94 0-3.6.45-4.96 1.36a8.67 8.67 0 0 0-3.04 3.78ZM742.5 293.57c.58.57 1.39.86 2.42.86 1.08 0 1.88-.29 2.42-.86.54-.58.8-1.39.8-2.42V277h11.66c4.71 0 8.35-1.15 10.91-3.47 2.56-2.36 3.85-5.66 3.85-9.92 0-4.22-1.28-7.48-3.85-9.8-2.56-2.35-6.2-3.53-10.91-3.53h-14.82c-1.03 0-1.84.29-2.42.87-.57.53-.86 1.34-.86 2.42v37.57c0 1.03.26 1.84.8 2.42Zm16.37-21.7h-10.73v-16.43h10.73c3.1 0 5.44.7 7 2.1 1.62 1.37 2.42 3.4 2.42 6.08 0 2.73-.8 4.8-2.41 6.2-1.57 1.36-3.91 2.05-7.01 2.05Z" clip-rule="evenodd"/></svg>