<svg width="2431" height="771" xmlns="http://www.w3.org/2000/svg" xmlns:xlink="http://www.w3.org/1999/xlink" xml:space="preserve" overflow="hidden"><g transform="translate(-1099 -905)"><path d="M1113 1032.97 1310.23 1228.35C1314.32 1231.73 1313.47 1234.24 1310.28 1237.62 1249.56 1298.56 1185.89 1357.69 1123.7 1417.73L1108.26 1432.89 1104.72 1426.36C1102.71 1421.62 1101.16 1416.64 1100.1 1411.48L1099.81 1408.58 1267.35 1241.03C1272.21 1236.18 1272.21 1228.31 1267.35 1223.46L1101.59 1057.7 1104.72 1047.61C1106.73 1042.87 1109.18 1038.37 1112.03 1034.15ZM1161.34 1000.95 1390.89 1228.35C1394.98 1231.73 1394.13 1234.24 1390.95 1237.62 1330.22 1298.56 1266.55 1357.69 1204.36 1417.73L1151.25 1469.89 1146.9 1468.54C1142.16 1466.54 1137.65 1464.08 1133.44 1461.23L1128.32 1457.01 1342.24 1243.08 1343.99 1241.93C1350.2 1235.71 1350.2 1225.64 1343.99 1219.42L1135.94 1011.38 1146.9 1005.43ZM1204.43 999.204 1245.39 999.204 1404.15 1157.96 1405.31 1159.71C1411.52 1165.92 1421.6 1165.92 1427.81 1159.71L1557.29 1030.23 1560.52 1034.15C1569.07 1046.8 1574.06 1062.05 1574.06 1078.47L1574.06 1395.51C1574.06 1439.28 1538.57 1474.77 1494.79 1474.77L1191.22 1474.77 1422.91 1243.08 1424.65 1241.93C1430.86 1235.71 1430.86 1225.64 1424.65 1219.42ZM1364.3 999.204 1464.54 999.204 1418.89 1045.29C1415.51 1049.38 1413 1048.53 1409.62 1045.34ZM1326.05 999.204 1404.15 1077.3 1405.31 1079.05C1411.52 1085.26 1421.6 1085.26 1427.81 1079.05L1506.48 1000.38 1510.77 1000.81C1515.93 1001.87 1520.91 1003.43 1525.65 1005.43L1533.86 1009.89 1418.89 1125.95C1415.51 1130.04 1413 1129.19 1409.62 1126.01 1368.99 1085.52 1329.17 1043.73 1289.34 1001.94L1286.72 999.204Z" fill="#FF6600" fill-rule="evenodd"/><text fill="#FF6600" font-family="PT Sans,PT Sans_MSFontService,sans-serif" font-weight="700" font-size="367" transform="matrix(1 0 0 1 1690.41 1361)">Karbitrans</text></g></svg>