<svg width="2140" height="813" viewBox="0 0 2140 813" fill="none" xmlns="http://www.w3.org/2000/svg">
<path d="M10.5049 483.421C66.4605 452.645 99.2755 393.258 138.095 344.805C192.231 277.234 249.973 211.387 313.727 152.633C346.878 122.082 383.005 96.0373 419.658 69.9358C439.007 56.1573 467.333 40.3372 476.759 16.7734C483.662 -0.484404 478.334 24.7394 478.334 36.0694C478.334 130.438 476.66 224.024 455.494 316.452C426.926 441.195 378.51 562.412 366.496 690.557C363.796 719.359 358.121 731.512 386.579 731.512C431.489 731.512 462.379 704.029 498.811 680.712C598.911 616.649 701.302 554.343 793.37 478.695C848.762 433.182 903.246 386 953.251 334.566C980.515 306.523 994.931 271.687 1020.2 242.812C1025.26 237.028 1024.04 257.998 1023.35 265.652C1020.47 297.274 1009.54 325.907 999.719 355.831C981.305 411.951 967.615 473.047 958.764 531.464C955.572 552.53 947.258 576.02 946.163 596.834C945.141 616.248 931.986 630.534 931.986 649.603C931.986 656.752 928.391 691.715 936.712 672.049C960.588 615.614 994.768 554.104 1036.74 509.411C1070.98 472.946 1098.66 432.737 1128.88 392.848C1143.78 373.186 1162.96 357.387 1177.71 337.717C1178.96 336.052 1192.14 303.67 1197.4 308.182C1214.9 323.18 1183.37 411.78 1179.68 427.896C1161.2 508.739 1132.48 585.841 1113.13 666.142C1107.54 689.356 1090.33 758.865 1095.02 735.45C1111.86 651.23 1172.96 587.511 1225.76 523.194C1271.26 467.765 1317.31 412.098 1363.59 357.406C1405.44 307.94 1356.32 477.937 1351.77 490.509C1326.77 559.658 1290.88 627.258 1258.05 692.92C1257.42 694.179 1245.15 707.22 1248.6 698.433C1258.81 672.448 1282.86 648.24 1297.43 624.4C1338.56 557.089 1384.97 487.194 1441.56 431.834C1459.29 414.491 1526.67 337.926 1527.4 392.848C1527.89 429.051 1531.39 468.776 1525.83 504.686C1518.8 550.057 1490.39 599.049 1474.24 642.514C1454.43 695.864 1417.08 772.915 1364.37 800.82C1326.65 820.79 1327.28 693.75 1344.68 674.412C1377.38 638.085 1427.09 626.244 1465.97 600.772C1555.86 541.882 1636.95 475.764 1725.88 416.476C1764.71 390.588 1803.88 364.979 1842.05 409.781C1876.38 450.08 1867.64 510.739 1867.64 559.817C1867.64 627.245 1782.27 808.643 1684.92 765.378C1665.09 756.563 1667.35 706.707 1669.17 688.982C1672.27 658.805 1711.23 654.012 1729.42 635.82C1752.45 612.788 1802.26 599.039 1833.78 588.171C1888.17 569.416 1943.64 552.525 1999.17 536.977C2046.1 523.838 2089.76 518.826 2114.16 470.032C2123.73 450.884 2129.91 428.388 2129.91 407.025C2129.91 381.925 2097.96 391.273 2079.11 391.273C2007.4 391.273 1867.64 424.534 1867.64 514.925C1867.64 565.013 1933.16 646.452 1985.39 646.452C2024.11 646.452 2062.84 646.452 2101.56 646.452" stroke="black" stroke-width="20" stroke-linecap="round"/>
<path d="M258.596 504.686C288.162 504.686 308.587 499.189 334.992 484.996C397.494 451.401 458.845 422.084 526.377 399.149C598.679 374.593 663.107 329.682 733.513 306.213" stroke="black" stroke-width="20" stroke-linecap="round"/>
<path d="M1018.24 179.576H1034.95" stroke="black" stroke-width="20" stroke-linecap="round"/>
<path d="M1803 306H1819.71" stroke="black" stroke-width="20" stroke-linecap="round"/>
</svg>
